<svg width="137" height="28" viewBox="0 0 137 28" fill="none" xmlns="http://www.w3.org/2000/svg">
<path d="M20.752 16.632C20.752 17.208 20.716 17.808 20.644 18.432H6.71198C6.80798 19.68 7.20398 20.64 7.89998 21.312C8.61998 21.96 9.49598 22.284 10.528 22.284C12.064 22.284 13.132 21.636 13.732 20.34H20.284C19.948 21.66 19.336 22.848 18.448 23.904C17.584 24.96 16.492 25.788 15.172 26.388C13.852 26.988 12.376 27.288 10.744 27.288C8.77598 27.288 7.02398 26.868 5.48798 26.028C3.95198 25.188 2.75198 23.988 1.88798 22.428C1.02398 20.868 0.591984 19.044 0.591984 16.956C0.591984 14.868 1.01198 13.044 1.85198 11.484C2.71598 9.924 3.91598 8.724 5.45198 7.884C6.98798 7.044 8.75198 6.624 10.744 6.624C12.688 6.624 14.416 7.032 15.928 7.848C17.44 8.664 18.616 9.828 19.456 11.34C20.32 12.852 20.752 14.616 20.752 16.632ZM14.452 15.012C14.452 13.956 14.092 13.116 13.372 12.492C12.652 11.868 11.752 11.556 10.672 11.556C9.63999 11.556 8.76398 11.856 8.04398 12.456C7.34798 13.056 6.91598 13.908 6.74798 15.012H14.452ZM29.7596 21.924H38.4716V27H22.8836V22.104L31.2356 11.988H22.9556V6.912H38.2916V11.808L29.7596 21.924Z" fill="#ED7902"/>
<path d="M50.031 27.288C48.279 27.288 46.719 26.988 45.351 26.388C43.983 25.788 42.903 24.972 42.111 23.94C41.319 22.884 40.875 21.708 40.779 20.412H46.863C46.935 21.108 47.259 21.672 47.835 22.104C48.411 22.536 49.119 22.752 49.959 22.752C50.727 22.752 51.315 22.608 51.723 22.32C52.155 22.008 52.371 21.612 52.371 21.132C52.371 20.556 52.071 20.136 51.471 19.872C50.871 19.584 49.899 19.272 48.555 18.936C47.115 18.6 45.915 18.252 44.955 17.892C43.995 17.508 43.167 16.92 42.471 16.128C41.775 15.312 41.427 14.22 41.427 12.852C41.427 11.7 41.739 10.656 42.363 9.72C43.011 8.76 43.947 8.004 45.171 7.452C46.419 6.9 47.895 6.624 49.599 6.624C52.119 6.624 54.099 7.248 55.539 8.496C57.003 9.744 57.843 11.4 58.059 13.464H52.371C52.275 12.768 51.963 12.216 51.435 11.808C50.931 11.4 50.259 11.196 49.419 11.196C48.699 11.196 48.147 11.34 47.763 11.628C47.379 11.892 47.187 12.264 47.187 12.744C47.187 13.32 47.487 13.752 48.087 14.04C48.711 14.328 49.671 14.616 50.967 14.904C52.455 15.288 53.667 15.672 54.603 16.056C55.539 16.416 56.355 17.016 57.051 17.856C57.771 18.672 58.143 19.776 58.167 21.168C58.167 22.344 57.831 23.4 57.159 24.336C56.511 25.248 55.563 25.968 54.315 26.496C53.091 27.024 51.663 27.288 50.031 27.288ZM74.2092 27L68.0892 18.576V27H61.9332V0.36H68.0892V15.084L74.1732 6.912H81.7692L73.4172 16.992L81.8412 27H74.2092ZM93.3311 27.288C91.3631 27.288 89.5871 26.868 88.0031 26.028C86.4431 25.188 85.2071 23.988 84.2951 22.428C83.4071 20.868 82.9631 19.044 82.9631 16.956C82.9631 14.892 83.4191 13.08 84.3311 11.52C85.2431 9.936 86.4911 8.724 88.0751 7.884C89.6591 7.044 91.4351 6.624 93.4031 6.624C95.3711 6.624 97.1471 7.044 98.7311 7.884C100.315 8.724 101.563 9.936 102.475 11.52C103.387 13.08 103.843 14.892 103.843 16.956C103.843 19.02 103.375 20.844 102.439 22.428C101.527 23.988 100.267 25.188 98.6591 26.028C97.0751 26.868 95.2991 27.288 93.3311 27.288ZM93.3311 21.96C94.5071 21.96 95.5031 21.528 96.3191 20.664C97.1591 19.8 97.5791 18.564 97.5791 16.956C97.5791 15.348 97.1711 14.112 96.3551 13.248C95.5631 12.384 94.5791 11.952 93.4031 11.952C92.2031 11.952 91.2071 12.384 90.4151 13.248C89.6231 14.088 89.2271 15.324 89.2271 16.956C89.2271 18.564 89.6111 19.8 90.3791 20.664C91.1711 21.528 92.1551 21.96 93.3311 21.96ZM116.253 27.288C114.285 27.288 112.509 26.868 110.925 26.028C109.365 25.188 108.129 23.988 107.217 22.428C106.329 20.868 105.885 19.044 105.885 16.956C105.885 14.892 106.341 13.08 107.253 11.52C108.165 9.936 109.413 8.724 110.997 7.884C112.581 7.044 114.357 6.624 116.325 6.624C118.293 6.624 120.069 7.044 121.653 7.884C123.237 8.724 124.485 9.936 125.397 11.52C126.309 13.08 126.765 14.892 126.765 16.956C126.765 19.02 126.297 20.844 125.361 22.428C124.449 23.988 123.189 25.188 121.581 26.028C119.997 26.868 118.221 27.288 116.253 27.288ZM116.253 21.96C117.429 21.96 118.425 21.528 119.241 20.664C120.081 19.8 120.501 18.564 120.501 16.956C120.501 15.348 120.093 14.112 119.277 13.248C118.485 12.384 117.501 11.952 116.325 11.952C115.125 11.952 114.129 12.384 113.337 13.248C112.545 14.088 112.149 15.324 112.149 16.956C112.149 18.564 112.533 19.8 113.301 20.664C114.093 21.528 115.077 21.96 116.253 21.96ZM136.187 0.36V27H130.031V0.36H136.187Z" fill="black"/>
</svg>
