<svg xmlns="http://www.w3.org/2000/svg" viewBox="0 0 960 1080">
  <!-- Background -->
  <rect width="960" height="1080" fill="#f5f5f5"/>
  
  <!-- Title -->
  <text x="480" y="50" font-family="Arial" font-size="28" font-weight="bold" text-anchor="middle" fill="#2E7D32">Farm to Fork: Natural Farming Marketplace</text>
  <text x="480" y="80" font-family="Arial" font-size="18" text-anchor="middle" fill="#558B2F">Wireframe Mockups</text>
  
  <!-- Line separator -->
  <line x1="100" y1="100" x2="860" y2="100" stroke="#BDBDBD" stroke-width="2"/>
  
  <!-- Farmer Screens -->
  <!-- Farmer Signup Screen -->
  <rect x="100" y="130" width="220" height="400" rx="10" ry="10" fill="white" stroke="#BDBDBD" stroke-width="2"/>
  <text x="210" y="155" font-family="Arial" font-size="16" font-weight="bold" text-anchor="middle" fill="#333">Farmer Signup</text>
  
  <rect x="120" y="170" width="180" height="30" rx="5" ry="5" fill="#EEEEEE" stroke="#BDBDBD"/>
  <text x="130" y="190" font-family="Arial" font-size="12" fill="#757575">Farm Name</text>
  
  <rect x="120" y="210" width="180" height="30" rx="5" ry="5" fill="#EEEEEE" stroke="#BDBDBD"/>
  <text x="130" y="230" font-family="Arial" font-size="12" fill="#757575">Email</text>
  
  <rect x="120" y="250" width="180" height="30" rx="5" ry="5" fill="#EEEEEE" stroke="#BDBDBD"/>
  <text x="130" y="270" font-family="Arial" font-size="12" fill="#757575">Password</text>
  
  <rect x="120" y="290" width="180" height="30" rx="5" ry="5" fill="#EEEEEE" stroke="#BDBDBD"/>
  <text x="130" y="310" font-family="Arial" font-size="12" fill="#757575">Location</text>
  
  <rect x="120" y="330" width="180" height="70" rx="5" ry="5" fill="#EEEEEE" stroke="#BDBDBD"/>
  <text x="130" y="350" font-family="Arial" font-size="12" fill="#757575">Farming Practices</text>
  
  <rect x="120" y="410" width="180" height="40" rx="20" ry="20" fill="#43A047" stroke="none"/>
  <text x="210" y="435" font-family="Arial" font-size="14" font-weight="bold" text-anchor="middle" fill="white">Create Account</text>
  
  <text x="210" y="470" font-family="Arial" font-size="12" text-anchor="middle" fill="#757575">Already have an account? Sign in</text>
  
  <!-- Farmer Verification Screen -->
  <rect x="370" y="130" width="220" height="400" rx="10" ry="10" fill="white" stroke="#BDBDBD" stroke-width="2"/>
  <text x="480" y="155" font-family="Arial" font-size="16" font-weight="bold" text-anchor="middle" fill="#333">Verification Process</text>
  
  <rect x="390" y="170" width="180" height="30" rx="5" ry="5" fill="#EEEEEE" stroke="#BDBDBD"/>
  <text x="400" y="190" font-family="Arial" font-size="12" fill="#757575">Select Farming Type</text>
  
  <rect x="400" y="210" width="160" height="100" rx="5" ry="5" fill="#EEEEEE" stroke="#BDBDBD"/>
  <rect x="440" y="220" width="80" height="80" rx="5" ry="5" fill="#E0E0E0" stroke="#BDBDBD"/>
  <text x="480" y="265" font-family="Arial" font-size="12" text-anchor="middle" fill="#757575">Add Photos</text>
  
  <rect x="390" y="320" width="180" height="70" rx="5" ry="5" fill="#EEEEEE" stroke="#BDBDBD"/>
  <text x="400" y="340" font-family="Arial" font-size="12" fill="#757575">Describe Your Practices</text>
  
  <rect x="390" y="400" width="180" height="40" rx="20" ry="20" fill="#43A047" stroke="none"/>
  <text x="480" y="425" font-family="Arial" font-size="14" font-weight="bold" text-anchor="middle" fill="white">Submit for Verification</text>
  
  <text x="480" y="460" font-family="Arial" font-size="12" text-anchor="middle" fill="#757575">Verification typically takes 24 hours</text>
  
  <!-- Farmer Product Listing -->
  <rect x="640" y="130" width="220" height="400" rx="10" ry="10" fill="white" stroke="#BDBDBD" stroke-width="2"/>
  <text x="750" y="155" font-family="Arial" font-size="16" font-weight="bold" text-anchor="middle" fill="#333">Add Product</text>
  
  <rect x="660" y="170" width="180" height="30" rx="5" ry="5" fill="#EEEEEE" stroke="#BDBDBD"/>
  <text x="670" y="190" font-family="Arial" font-size="12" fill="#757575">Product Name</text>
  
  <rect x="660" y="210" width="180" height="30" rx="5" ry="5" fill="#EEEEEE" stroke="#BDBDBD"/>
  <text x="670" y="230" font-family="Arial" font-size="12" fill="#757575">Price per Unit</text>
  
  <rect x="660" y="250" width="180" height="30" rx="5" ry="5" fill="#EEEEEE" stroke="#BDBDBD"/>
  <text x="670" y="270" font-family="Arial" font-size="12" fill="#757575">Available Quantity</text>
  
  <rect x="660" y="290" width="180" height="30" rx="5" ry="5" fill="#EEEEEE" stroke="#BDBDBD"/>
  <text x="670" y="310" font-family="Arial" font-size="12" fill="#757575">Harvest Date</text>
  
  <rect x="670" y="330" width="160" height="70" rx="5" ry="5" fill="#EEEEEE" stroke="#BDBDBD"/>
  <rect x="700" y="340" width="50" height="50" rx="5" ry="5" fill="#E0E0E0" stroke="#BDBDBD"/>
  <rect x="760" y="340" width="50" height="50" rx="5" ry="5" fill="#E0E0E0" stroke="#BDBDBD"/>
  <text x="750" y="410" font-family="Arial" font-size="12" text-anchor="middle" fill="#757575">Product Photos</text>
  
  <rect x="660" y="410" width="180" height="40" rx="20" ry="20" fill="#43A047" stroke="none"/>
  <text x="750" y="435" font-family="Arial" font-size="14" font-weight="bold" text-anchor="middle" fill="white">Generate QR & List</text>
  
  <text x="750" y="470" font-family="Arial" font-size="12" text-anchor="middle" fill="#757575">QR code enables product traceability</text>
  
  <!-- Consumer Screens -->
  <!-- Consumer Browse Screen -->
  <rect x="100" y="560" width="220" height="400" rx="10" ry="10" fill="white" stroke="#BDBDBD" stroke-width="2"/>
  <text x="210" y="585" font-family="Arial" font-size="16" font-weight="bold" text-anchor="middle" fill="#333">Browse Products</text>
  
  <rect x="120" y="600" width="180" height="30" rx="15" ry="15" fill="#EEEEEE" stroke="#BDBDBD"/>
  <text x="150" y="620" font-family="Arial" font-size="12" fill="#757575">🔍 Search</text>
  
  <!-- Product listing -->
  <rect x="120" y="640" width="180" height="70" rx="5" ry="5" fill="#F5F5F5" stroke="#BDBDBD"/>
  <rect x="130" y="650" width="50" height="50" rx="5" ry="5" fill="#E0E0E0" stroke="#BDBDBD"/>
  <text x="195" y="665" font-family="Arial" font-size="12" font-weight="bold" fill="#333">Organic Tomatoes</text>
  <text x="195" y="685" font-family="Arial" font-size="12" fill="#757575">Green Earth Farm</text>
  <text x="195" y="700" font-family="Arial" font-size="12" fill="#43A047">₹40/kg</text>
  
  <rect x="120" y="720" width="180" height="70" rx="5" ry="5" fill="#F5F5F5" stroke="#BDBDBD"/>
  <rect x="130" y="730" width="50" height="50" rx="5" ry="5" fill="#E0E0E0" stroke="#BDBDBD"/>
  <text x="195" y="745" font-family="Arial" font-size="12" font-weight="bold" fill="#333">Natural Spinach</text>
  <text x="195" y="765" font-family="Arial" font-size="12" fill="#757575">Sunshine Organics</text>
  <text x="195" y="780" font-family="Arial" font-size="12" fill="#43A047">₹30/bunch</text>
  
  <rect x="120" y="800" width="180" height="70" rx="5" ry="5" fill="#F5F5F5" stroke="#BDBDBD"/>
  <rect x="130" y="810" width="50" height="50" rx="5" ry="5" fill="#E0E0E0" stroke="#BDBDBD"/>
  <text x="195" y="825" font-family="Arial" font-size="12" font-weight="bold" fill="#333">Fresh Carrots</text>
  <text x="195" y="845" font-family="Arial" font-size="12" fill="#757575">Nature's Bounty</text>
  <text x="195" y="860" font-family="Arial" font-size="12" fill="#43A047">₹35/kg</text>
  
  <!-- Filter buttons -->
  <rect x="120" y="880" width="85" height="30" rx="15" ry="15" fill="white" stroke="#43A047" stroke-width="1"/>
  <text x="162" y="900" font-family="Arial" font-size="12" text-anchor="middle" fill="#43A047">Nearby</text>
  
  <rect x="215" y="880" width="85" height="30" rx="15" ry="15" fill="white" stroke="#43A047" stroke-width="1"/>
  <text x="257" y="900" font-family="Arial" font-size="12" text-anchor="middle" fill="#43A047">Filters</text>
  
  <!-- Product Detail Screen -->
  <rect x="370" y="560" width="220" height="400" rx="10" ry="10" fill="white" stroke="#BDBDBD" stroke-width="2"/>
  <text x="480" y="585" font-family="Arial" font-size="16" font-weight="bold" text-anchor="middle" fill="#333">Product Details</text>
  
  <rect x="390" y="600" width="180" height="120" rx="5" ry="5" fill="#EEEEEE" stroke="#BDBDBD"/>
  <text x="480" y="665" font-family="Arial" font-size="14" font-weight="bold" text-anchor="middle" fill="#333">Product Image</text>
  
  <text x="390" y="740" font-family="Arial" font-size="16" font-weight="bold" fill="#333">Organic Tomatoes</text>
  <text x="390" y="760" font-family="Arial" font-size="14" fill="#43A047">₹40/kg</text>
  <text x="390" y="780" font-family="Arial" font-size="12" fill="#757575">Green Earth Farm • 3.2 km away</text>
  <text x="390" y="800" font-family="Arial" font-size="12" fill="#333">Harvested: March 1, 2025</text>
  
  <text x="390" y="830" font-family="Arial" font-size="14" font-weight="bold" fill="#333">Farming Practices:</text>
  <text x="390" y="850" font-family="Arial" font-size="12" fill="#333">• No chemical pesticides</text>
  <text x="390" y="870" font-family="Arial" font-size="12" fill="#333">• Natural compost used</text>
  <text x="390" y="890" font-family="Arial" font-size="12" fill="#333">• Rainwater harvesting</text>
  
  <rect x="390" y="910" width="180" height="40" rx="20" ry="20" fill="#43A047" stroke="none"/>
  <text x="480" y="935" font-family="Arial" font-size="14" font-weight="bold" text-anchor="middle" fill="white">Add to Cart</text>
  
  <!-- QR Verification Screen -->
  <rect x="640" y="560" width="220" height="400" rx="10" ry="10" fill="white" stroke="#BDBDBD" stroke-width="2"/>
  <text x="750" y="585" font-family="Arial" font-size="16" font-weight="bold" text-anchor="middle" fill="#333">QR Verification</text>
  
  <!-- Camera viewport -->
  <rect x="660" y="600" width="180" height="180" rx="5" ry="5" fill="#EEEEEE" stroke="#BDBDBD"/>
  <rect x="680" y="620" width="140" height="140" rx="5" ry="5" fill="#E0E0E0" stroke="#BDBDBD" stroke-dasharray="5,5"/>
  <text x="750" y="695" font-family="Arial" font-size="12" text-anchor="middle" fill="#757575">Scan QR Code</text>
  
  <!-- Verification result -->
  <rect x="660" y="790" width="180" height="120" rx="5" ry="5" fill="#F1F8E9" stroke="#AED581"/>
  <text x="750" y="820" font-family="Arial" font-size="14" font-weight="bold" text-anchor="middle" fill="#33691E">Verified ✓</text>
  <text x="750" y="845" font-family="Arial" font-size="12" text-anchor="middle" fill="#558B2F">Organic Tomatoes</text>
  <text x="750" y="865" font-family="Arial" font-size="12" text-anchor="middle" fill="#558B2F">Green Earth Farm</text>
  <text x="750" y="885" font-family="Arial" font-size="12" text-anchor="middle" fill="#558B2F">Naturally Grown</text>
  
  <rect x="660" y="920" width="180" height="30" rx="15" ry="15" fill="white" stroke="#43A047" stroke-width="1"/>
  <text x="750" y="940" font-family="Arial" font-size="12" text-anchor="middle" fill="#43A047">View Full Details</text>
  
  <!-- Mobile Navigation Bar for reference -->
  <rect x="100" y="970" width="760" height="60" rx="5" ry="5" fill="white" stroke="#BDBDBD" stroke-width="2"/>
  <text x="185" y="1005" font-family="Arial" font-size="12" text-anchor="middle" fill="#757575">Home</text>
  <text x="350" y="1005" font-family="Arial" font-size="12" text-anchor="middle" fill="#757575">Browse</text>
  <text x="515" y="1005" font-family="Arial" font-size="12" text-anchor="middle" fill="#757575">Scan QR</text>
  <text x="680" y="1005" font-family="Arial" font-size="12" text-anchor="middle" fill="#757575">Orders</text>
  <text x="845" y="1005" font-family="Arial" font-size="12" text-anchor="middle" fill="#757575">Profile</text>
  <circle cx="515" cy="990" r="15" fill="#43A047"/>
  <text x="515" y="994" font-family="Arial" font-size="14" font-weight="bold" text-anchor="middle" fill="white">+</text>
  
  <!-- Notes & annotations -->
  <text x="480" y="1050" font-family="Arial" font-size="14" font-weight="bold" text-anchor="middle" fill="#333">UI Notes: Clean, farm-inspired color scheme with natural greens and earthy tones</text>
</svg>
