<svg xmlns="http://www.w3.org/2000/svg" viewBox="0 0 1000 1300">
  <!-- Background -->
  <rect width="1000" height="1300" fill="#f5f5f5"/>
  
  <!-- Title -->
  <text x="500" y="50" font-family="Arial" font-size="28" font-weight="bold" text-anchor="middle" fill="#2e7d32">Farm Fluent: Natural Farming Marketplace</text>
  <text x="500" y="80" font-family="Arial" font-size="16" text-anchor="middle" fill="#2e7d32">Bridging Natural Farmers with Conscious Consumers</text>
  
  <!-- Farmer Section -->
  <text x="250" y="130" font-family="Arial" font-size="22" font-weight="bold" text-anchor="middle" fill="#2e7d32">Farmer Journey</text>
  
  <!-- Farmer Screens -->
  <!-- Onboarding Screen -->
  <rect x="50" y="150" width="200" height="350" rx="10" fill="white" stroke="#cccccc" stroke-width="2"/>
  <text x="150" y="180" font-family="Arial" font-size="16" font-weight="bold" text-anchor="middle">Farmer Onboarding</text>
  
  <!-- Header Bar -->
  <rect x="50" y="150" width="200" height="40" rx="10" fill="#2e7d32" stroke="#2e7d32"/>
  <text x="150" y="175" font-family="Arial" font-size="14" text-anchor="middle" fill="white">Farm Fluent</text>
  
  <!-- Form Fields -->
  <rect x="70" y="210" width="160" height="30" rx="5" fill="white" stroke="#cccccc"/>
  <text x="80" y="230" font-family="Arial" font-size="12" fill="#666666">Farm Name</text>
  
  <rect x="70" y="250" width="160" height="30" rx="5" fill="white" stroke="#cccccc"/>
  <text x="80" y="270" font-family="Arial" font-size="12" fill="#666666">Location</text>
  
  <rect x="70" y="290" width="160" height="30" rx="5" fill="white" stroke="#cccccc"/>
  <text x="80" y="310" font-family="Arial" font-size="12" fill="#666666">Contact Details</text>
  
  <text x="80" y="340" font-family="Arial" font-size="14" font-weight="bold" fill="#333333">Farming Practices</text>
  
  <rect x="70" y="350" width="16" height="16" rx="3" fill="white" stroke="#2e7d32" stroke-width="2"/>
  <text x="95" y="363" font-family="Arial" font-size="12" fill="#333333">No Chemicals</text>
  
  <rect x="70" y="375" width="16" height="16" rx="3" fill="white" stroke="#2e7d32" stroke-width="2"/>
  <text x="95" y="388" font-family="Arial" font-size="12" fill="#333333">Natural Fertilizers</text>
  
  <rect x="70" y="400" width="16" height="16" rx="3" fill="white" stroke="#2e7d32" stroke-width="2"/>
  <text x="95" y="413" font-family="Arial" font-size="12" fill="#333333">Water Conservation</text>
  
  <rect x="70" y="435" width="160" height="40" rx="5" fill="#2e7d32"/>
  <text x="150" y="460" font-family="Arial" font-size="14" text-anchor="middle" fill="white">Continue</text>
  
  <!-- Verification Screen -->
  <rect x="280" y="150" width="200" height="350" rx="10" fill="white" stroke="#cccccc" stroke-width="2"/>
  <text x="380" y="180" font-family="Arial" font-size="16" font-weight="bold" text-anchor="middle">Practice Verification</text>
  
  <!-- Header Bar -->
  <rect x="280" y="150" width="200" height="40" rx="10" fill="#2e7d32" stroke="#2e7d32"/>
  <text x="380" y="175" font-family="Arial" font-size="14" text-anchor="middle" fill="white">Farm Fluent</text>
  
  <!-- Upload Section -->
  <rect x="300" y="210" width="160" height="120" rx="5" fill="#f7f7f7" stroke="#cccccc" stroke-dasharray="5,5"/>
  <text x="380" y="270" font-family="Arial" font-size="14" text-anchor="middle" fill="#666666">Upload Farm Photos</text>
  <circle cx="380" cy="240" r="15" fill="none" stroke="#2e7d32" stroke-width="2"/>
  <text x="380" y="245" font-family="Arial" font-size="20" text-anchor="middle" fill="#2e7d32">+</text>
  
  <text x="300" y="350" font-family="Arial" font-size="14" font-weight="bold" fill="#333333">Verification Declaration</text>
  
  <rect x="300" y="370" width="160" height="60" rx="5" fill="white" stroke="#cccccc"/>
  <text x="310" y="390" font-family="Arial" font-size="12" fill="#666666" text-anchor="start">I declare that all information...</text>
  
  <rect x="300" y="450" width="160" height="40" rx="5" fill="#2e7d32"/>
  <text x="380" y="475" font-family="Arial" font-size="14" text-anchor="middle" fill="white">Submit for Verification</text>
  
  <!-- Product Listing Screen -->
  <rect x="510" y="150" width="200" height="350" rx="10" fill="white" stroke="#cccccc" stroke-width="2"/>
  <text x="610" y="180" font-family="Arial" font-size="16" font-weight="bold" text-anchor="middle">Product Listing</text>
  
  <!-- Header Bar -->
  <rect x="510" y="150" width="200" height="40" rx="10" fill="#2e7d32" stroke="#2e7d32"/>
  <text x="610" y="175" font-family="Arial" font-size="14" text-anchor="middle" fill="white">Farm Fluent</text>
  
  <!-- Product Form -->
  <rect x="530" y="210" width="160" height="30" rx="5" fill="white" stroke="#cccccc"/>
  <text x="540" y="230" font-family="Arial" font-size="12" fill="#666666">Product Name</text>
  
  <rect x="530" y="250" width="160" height="30" rx="5" fill="white" stroke="#cccccc"/>
  <text x="540" y="270" font-family="Arial" font-size="12" fill="#666666">Quantity & Unit</text>
  
  <rect x="530" y="290" width="160" height="30" rx="5" fill="white" stroke="#cccccc"/>
  <text x="540" y="310" font-family="Arial" font-size="12" fill="#666666">Price</text>
  
  <rect x="530" y="330" width="160" height="30" rx="5" fill="white" stroke="#cccccc"/>
  <text x="540" y="350" font-family="Arial" font-size="12" fill="#666666">Harvest Date</text>
  
  <rect x="530" y="380" width="160" height="60" rx="5" fill="white" stroke="#cccccc"/>
  <text x="540" y="400" font-family="Arial" font-size="12" fill="#666666">Description & Growing Methods</text>
  
  <rect x="530" y="450" width="160" height="40" rx="5" fill="#2e7d32"/>
  <text x="610" y="475" font-family="Arial" font-size="14" text-anchor="middle" fill="white">Create Listing</text>
  
  <!-- QR Code Screen -->
  <rect x="740" y="150" width="200" height="350" rx="10" fill="white" stroke="#cccccc" stroke-width="2"/>
  <text x="840" y="180" font-family="Arial" font-size="16" font-weight="bold" text-anchor="middle">Traceability QR</text>
  
  <!-- Header Bar -->
  <rect x="740" y="150" width="200" height="40" rx="10" fill="#2e7d32" stroke="#2e7d32"/>
  <text x="840" y="175" font-family="Arial" font-size="14" text-anchor="middle" fill="white">Farm Fluent</text>
  
  <!-- QR Section -->
  <rect x="775" y="210" width="130" height="130" rx="5" fill="white" stroke="#cccccc"/>
  <!-- QR Code representation -->
  <rect x="785" y="220" width="110" height="110" fill="white"/>
  <g transform="translate(785, 220)">
    <!-- Simple QR code representation -->
    <rect x="10" y="10" width="90" height="90" fill="#333"/>
    <rect x="20" y="20" width="70" height="70" fill="white"/>
    <rect x="30" y="30" width="50" height="50" fill="#333"/>
    <rect x="40" y="40" width="30" height="30" fill="white"/>
    <rect x="45" y="45" width="20" height="20" fill="#333"/>
  </g>
  
  <text x="840" y="360" font-family="Arial" font-size="14" text-anchor="middle" fill="#333333">Product: Organic Tomatoes</text>
  <text x="840" y="380" font-family="Arial" font-size="12" text-anchor="middle" fill="#666666">Harvest Date: 01/03/2025</text>
  <text x="840" y="400" font-family="Arial" font-size="12" text-anchor="middle" fill="#666666">Farm: Nature's Bounty</text>
  
  <rect x="775" y="420" width="130" height="40" rx="5" fill="#2e7d32"/>
  <text x="840" y="445" font-family="Arial" font-size="14" text-anchor="middle" fill="white">Print QR Code</text>
  
  <rect x="775" y="470" width="130" height="20" rx="5" fill="white" stroke="#2e7d32"/>
  <text x="840" y="485" font-family="Arial" font-size="12" text-anchor="middle" fill="#2e7d32">Share Link</text>
  
  <!-- Consumer Section -->
  <text x="250" y="550" font-family="Arial" font-size="22" font-weight="bold" text-anchor="middle" fill="#2e7d32">Consumer Journey</text>
  
  <!-- Browse Farms Screen -->
  <rect x="50" y="580" width="200" height="350" rx="10" fill="white" stroke="#cccccc" stroke-width="2"/>
  <text x="150" y="610" font-family="Arial" font-size="16" font-weight="bold" text-anchor="middle">Browse Farms</text>
  
  <!-- Header Bar -->
  <rect x="50" y="580" width="200" height="40" rx="10" fill="#2e7d32" stroke="#2e7d32"/>
  <text x="150" y="605" font-family="Arial" font-size="14" text-anchor="middle" fill="white">Farm Fluent</text>
  
  <!-- Search Bar -->
  <rect x="70" y="640" width="160" height="30" rx="15" fill="white" stroke="#cccccc"/>
  <text x="90" y="660" font-family="Arial" font-size="12" fill="#666666">Search farms...</text>
  <circle cx="215" cy="655" r="8" fill="none" stroke="#666666" stroke-width="2"/>
  <line x1="220" y1="660" x2="225" y2="665" stroke="#666666" stroke-width="2"/>
  
  <!-- Farm Cards -->
  <rect x="70" y="680" width="160" height="80" rx="5" fill="white" stroke="#cccccc"/>
  <text x="85" y="700" font-family="Arial" font-size="14" font-weight="bold" fill="#333333">Nature's Bounty</text>
  <text x="85" y="720" font-family="Arial" font-size="12" fill="#666666">Natural Farming • 3.2 km</text>
  <text x="85" y="740" font-family="Arial" font-size="12" fill="#2e7d32">✓ Verified</text>
  
  <rect x="70" y="770" width="160" height="80" rx="5" fill="white" stroke="#cccccc"/>
  <text x="85" y="790" font-family="Arial" font-size="14" font-weight="bold" fill="#333333">Green Valley Farm</text>
  <text x="85" y="810" font-family="Arial" font-size="12" fill="#666666">Organic • 5.7 km</text>
  <text x="85" y="830" font-family="Arial" font-size="12" fill="#2e7d32">✓ Verified</text>
  
  <rect x="70" y="860" width="160" height="30" rx="15" fill="#2e7d32" fill-opacity="0.1" stroke="#2e7d32"/>
  <text x="150" y="880" font-family="Arial" font-size="14" text-anchor="middle" fill="#2e7d32">Filter</text>
  
  <!-- Farm Profile Screen -->
  <rect x="280" y="580" width="200" height="350" rx="10" fill="white" stroke="#cccccc" stroke-width="2"/>
  <text x="380" y="610" font-family="Arial" font-size="16" font-weight="bold" text-anchor="middle">Farm Profile</text>
  
  <!-- Header Bar -->
  <rect x="280" y="580" width="200" height="40" rx="10" fill="#2e7d32" stroke="#2e7d32"/>
  <text x="380" y="605" font-family="Arial" font-size="14" text-anchor="middle" fill="white">Farm Fluent</text>
  
  <!-- Farm Header -->
  <rect x="280" y="620" width="200" height="100" fill="#f2f7f2"/>
  <circle cx="320" cy="670" r="30" fill="#2e7d32" fill-opacity="0.2" stroke="#2e7d32" stroke-width="2"/>
  <text x="320" y="675" font-family="Arial" font-size="16" text-anchor="middle" fill="#2e7d32">NB</text>
  <text x="410" y="655" font-family="Arial" font-size="16" font-weight="bold" fill="#333333">Nature's Bounty</text>
  <text x="410" y="675" font-family="Arial" font-size="12" fill="#666666">Since 2020</text>
  <text x="410" y="695" font-family="Arial" font-size="12" fill="#2e7d32">✓ Verified</text>
  
  <!-- Farm Details -->
  <text x="300" y="740" font-family="Arial" font-size="14" font-weight="bold" fill="#333333">Farming Practices</text>
  <text x="300" y="760" font-family="Arial" font-size="12" fill="#666666">• No Chemical Pesticides</text>
  <text x="300" y="780" font-family="Arial" font-size="12" fill="#666666">• Natural Fertilizers</text>
  <text x="300" y="800" font-family="Arial" font-size="12" fill="#666666">• Water Conservation</text>
  
  <text x="300" y="830" font-family="Arial" font-size="14" font-weight="bold" fill="#333333">Available Products</text>
  
  <rect x="300" y="850" width="160" height="40" rx="5" fill="white" stroke="#cccccc"/>
  <text x="315" y="870" font-family="Arial" font-size="12" font-weight="bold" fill="#333333">Organic Tomatoes</text>
  <text x="315" y="885" font-family="Arial" font-size="12" fill="#666666">₹80/kg • Available now</text>
  
  <!-- Product Page Screen -->
  <rect x="510" y="580" width="200" height="350" rx="10" fill="white" stroke="#cccccc" stroke-width="2"/>
  <text x="610" y="610" font-family="Arial" font-size="16" font-weight="bold" text-anchor="middle">Product Details</text>
  
  <!-- Header Bar -->
  <rect x="510" y="580" width="200" height="40" rx="10" fill="#2e7d32" stroke="#2e7d32"/>
  <text x="610" y="605" font-family="Arial" font-size="14" text-anchor="middle" fill="white">Farm Fluent</text>
  
  <!-- Product Image Placeholder -->
  <rect x="510" y="620" width="200" height="120" fill="#f2f7f2"/>
  <circle cx="610" cy="680" r="30" fill="#2e7d32" fill-opacity="0.2" stroke="#2e7d32" stroke-width="2"/>
  <text x="610" y="685" font-family="Arial" font-size="20" text-anchor="middle" fill="#2e7d32">🍅</text>
  
  <!-- Product Details -->
  <text x="530" y="760" font-family="Arial" font-size="18" font-weight="bold" fill="#333333">Organic Tomatoes</text>
  <text x="530" y="780" font-family="Arial" font-size="14" fill="#2e7d32">₹80/kg</text>
  <text x="530" y="800" font-family="Arial" font-size="12" fill="#666666">Nature's Bounty Farm • 3.2 km</text>
  
  <text x="530" y="830" font-family="Arial" font-size="14" font-weight="bold" fill="#333333">Traceability</text>
  <text x="530" y="850" font-family="Arial" font-size="12" fill="#666666">• Harvested: March 1, 2025</text>
  <text x="530" y="870" font-family="Arial" font-size="12" fill="#666666">• Grown without chemicals</text>
  <text x="530" y="890" font-family="Arial" font-size="12" fill="#666666">• Rain-fed cultivation</text>
  
  <rect x="530" y="910" width="160" height="40" rx="5" fill="#2e7d32"/>
  <text x="610" y="935" font-family="Arial" font-size="14" text-anchor="middle" fill="white">Add to Cart</text>
  
  <!-- QR Scanner Screen -->
  <rect x="740" y="580" width="200" height="350" rx="10" fill="white" stroke="#cccccc" stroke-width="2"/>
  <text x="840" y="610" font-family="Arial" font-size="16" font-weight="bold" text-anchor="middle">QR Verification</text>
  
  <!-- Header Bar -->
  <rect x="740" y="580" width="200" height="40" rx="10" fill="#2e7d32" stroke="#2e7d32"/>
  <text x="840" y="605" font-family="Arial" font-size="14" text-anchor="middle" fill="white">Farm Fluent</text>
  
  <!-- Scanner Viewport -->
  <rect x="760" y="640" width="160" height="160" rx="5" fill="#000000" fill-opacity="0.05"/>
  <rect x="775" y="655" width="130" height="130" rx="5" fill="none" stroke="#2e7d32" stroke-width="3" stroke-dasharray="10,5"/>
  <text x="840" y="720" font-family="Arial" font-size="12" text-anchor="middle" fill="#2e7d32">Point camera at QR code</text>
  
  <text x="840" y="830" font-family="Arial" font-size="14" text-anchor="middle" fill="#333333">Scan product QR code to</text>
  <text x="840" y="850" font-family="Arial" font-size="14" text-anchor="middle" fill="#333333">verify origin and practices</text>
  
  <circle cx="840" cy="890" r="20" fill="#2e7d32" stroke="#2e7d32" stroke-width="2"/>
  <rect x="830" y="880" width="20" height="20" fill="#2e7d32"/>
  
  <!-- App Highlights -->
  <text x="750" y="970" font-family="Arial" font-size="22" font-weight="bold" text-anchor="middle" fill="#2e7d32">App Highlights</text>
  
  <!-- Feature Boxes -->
  <rect x="50" y="1000" width="200" height="120" rx="10" fill="white" stroke="#2e7d32" stroke-width="2"/>
  <text x="150" y="1030" font-family="Arial" font-size="16" font-weight="bold" text-anchor="middle" fill="#2e7d32">Verification System</text>
  <text x="150" y="1060" font-family="Arial" font-size="12" text-anchor="middle" fill="#333333">Simple and transparent process</text>
  <text x="150" y="1080" font-family="Arial" font-size="12" text-anchor="middle" fill="#333333">for farm practice verification</text>
  
  <rect x="280" y="1000" width="200" height="120" rx="10" fill="white" stroke="#2e7d32" stroke-width="2"/>
  <text x="380" y="1030" font-family="Arial" font-size="16" font-weight="bold" text-anchor="middle" fill="#2e7d32">QR Traceability</text>
  <text x="380" y="1060" font-family="Arial" font-size="12" text-anchor="middle" fill="#333333">Scan to see complete journey</text>
  <text x="380" y="1080" font-family="Arial" font-size="12" text-anchor="middle" fill="#333333">from farm to consumer</text>
  
  <rect x="510" y="1000" width="200" height="120" rx="10" fill="white" stroke="#2e7d32" stroke-width="2"/>
  <text x="610" y="1030" font-family="Arial" font-size="16" font-weight="bold" text-anchor="middle" fill="#2e7d32">Direct Marketplace</text>
  <text x="610" y="1060" font-family="Arial" font-size="12" text-anchor="middle" fill="#333333">Connect farmers directly with</text>
  <text x="610" y="1080" font-family="Arial" font-size="12" text-anchor="middle" fill="#333333">conscious consumers</text>
  
  <rect x="740" y="1000" width="200" height="120" rx="10" fill="white" stroke="#2e7d32" stroke-width="2"/>
  <text x="840" y="1030" font-family="Arial" font-size="16" font-weight="bold" text-anchor="middle" fill="#2e7d32">Local Implementation</text>
  <text x="840" y="1060" font-family="Arial" font-size="12" text-anchor="middle" fill="#333333">Works in local environments</text>
  <text x="840" y="1080" font-family="Arial" font-size="12" text-anchor="middle" fill="#333333">for real-world testing</text>
  
  <!-- User Journey Flow -->
  <text x="500" y="1150" font-family="Arial" font-size="22" font-weight="bold" text-anchor="middle" fill="#2e7d32">User Journey Flow</text>
  
  <!-- Flow Diagram -->
  <rect x="100" y="1180" width="800" height="100" rx="10" fill="#f2f7f2" stroke="#cccccc" stroke-width="1"/>
  
  <!-- Farmer Flow -->
  <text x="150" y="1200" font-family="Arial" font-size="14" font-weight="bold" text-anchor="middle" fill="#2e7d32">Farmer</text>
  <rect x="100" y="1210" width="100" height="30" rx="15" fill="white" stroke="#2e7d32" stroke-width="1"/>
  <text x="150" y="1230" font-family="Arial" font-size="12" text-anchor="middle">Onboarding</text>
  
  <line x1="200" y1="1225" x2="230" y2="1225" stroke="#2e7d32" stroke-width="1" marker-end="url(#arrow)"/>
  
  <rect x="230" y="1210" width="100" height="30" rx="15" fill="white" stroke="#2e7d32" stroke-width="1"/>
  <text x="280" y="1230" font-family="Arial" font-size="12" text-anchor="middle">Verification</text>
  
  <line x1="330" y1="1225" x2="360" y2="1225" stroke="#2e7d32" stroke-width="1" marker-end="url(#arrow)"/>
  
  <rect x="360" y="1210" width="100" height="30" rx="15" fill="white" stroke="#2e7d32" stroke-width="1"/>
  <text x="410" y="1230" font-family="Arial" font-size="12" text-anchor="middle">Product Listing</text>
  
  <!-- Consumer Flow -->
  <text x="650" y="1200" font-family="Arial" font-size="14" font-weight="bold" text-anchor="middle" fill="#2e7d32">Consumer</text>
  <rect x="540" y="1210" width="100" height="30" rx="15" fill="white" stroke="#2e7d32" stroke-width="1"/>
  <text x="590" y="1230" font-family="Arial" font-size="12" text-anchor="middle">Browse Farms</text>
  
  <line x1="640" y1="1225" x2="670" y2="1225" stroke="#2e7d32" stroke-width="1" marker-end="url(#arrow)"/>
  
  <rect x="670" y="1210" width="100" height="30" rx="15" fill="white" stroke="#2e7d32" stroke-width="1"/>
  <text x="720" y="1230" font-family="Arial" font-size="12" text-anchor="middle">QR Verification</text>
  
  <line x1="770" y1="1225" x2="800" y2="1225" stroke="#2e7d32" stroke-width="1" marker-end="url(#arrow)"/>
  
  <rect x="800" y="1210" width="100" height="30" rx="15" fill="white" stroke="#2e7d32" stroke-width="1"/>
  <text x="850" y="1230" font-family="Arial" font-size="12" text-anchor="middle">Purchase</text>
  
  <!-- Connection between flows -->
  <line x1="460" y1="1225" x2="540" y2="1225" stroke="#2e7d32" stroke-width="2" stroke-dasharray="5,5"/>
  <circle cx="500" cy="1225" r="15" fill="#2e7d32"/>
  <text x="500" y="1230" font-family="Arial" font-size="14" text-anchor="middle" fill="white">QR</text>
  
  <!-- Arrow Marker Definition -->
  <defs>
    <marker id="arrow" viewBox="0 0 10 10" refX="5" refY="5"
            markerWidth="6" markerHeight="6"
            orient="auto-start-reverse">
      <path d="M 0 0 L 10 5 L 0 10 z" fill="#2e7d32"/>
    </marker>
  </defs>
</svg>
