<?xml version="1.0" encoding="UTF-8"?>
<svg version="1.1" xmlns="http://www.w3.org/2000/svg" width="512" height="512">
<path d="M0 0 C1.01790619 0.00215515 2.03581238 0.0043103 3.08456421 0.00653076 C17.69363523 0.05620146 32.02575853 0.30709809 46.375 3.3125 C47.34985352 3.51117676 48.32470703 3.70985352 49.32910156 3.91455078 C97.7109774 14.03517194 141.69928269 35.9516877 177.375 70.3125 C178.3640332 71.26068604 178.3640332 71.26068604 179.37304688 72.22802734 C188.86130305 81.37247479 197.6012044 90.66984009 205.375 101.3125 C206.23306152 102.46355017 207.09113451 103.61459177 207.94921875 104.765625 C213.98736829 112.95680614 219.34595521 121.47054105 224.375 130.3125 C224.73948242 130.94430176 225.10396484 131.57610352 225.47949219 132.22705078 C247.08534998 169.97532572 256.85198095 212.74189997 256.6875 255.9375 C256.68534485 256.95540619 256.6831897 257.97331238 256.68096924 259.02206421 C256.63129854 273.63113523 256.38040191 287.96325853 253.375 302.3125 C253.07698486 303.77478027 253.07698486 303.77478027 252.77294922 305.26660156 C242.65232806 353.6484774 220.7358123 397.63678269 186.375 433.3125 C185.74287598 433.97185547 185.11075195 434.63121094 184.45947266 435.31054688 C175.31502521 444.79880305 166.01765991 453.5387044 155.375 461.3125 C154.22394983 462.17056152 153.07290823 463.02863451 151.921875 463.88671875 C143.73224019 469.92427396 135.22961724 475.30707302 126.375 480.3125 C125.66778809 480.7146875 124.96057617 481.116875 124.23193359 481.53125 C101.09654164 494.5566741 75.92537591 503.30551461 49.9375 508.625 C49.21860596 508.77235596 48.49971191 508.91971191 47.7590332 509.0715332 C33.08339502 511.86090125 18.55831162 512.66142619 3.64770508 512.62817383 C0.70811513 512.6250221 -2.2304558 512.64854926 -5.16992188 512.67382812 C-18.54306192 512.71848737 -31.43916711 511.51301542 -44.625 509.3125 C-46.33055054 509.03031616 -46.33055054 509.03031616 -48.07055664 508.74243164 C-91.33802759 500.97044532 -132.38793216 480.98345309 -165.625 452.3125 C-166.37007813 451.67828125 -167.11515625 451.0440625 -167.8828125 450.390625 C-181.38779833 438.57948485 -194.05918743 425.82889772 -204.625 411.3125 C-205.48149066 410.16255169 -206.33826433 409.01281411 -207.1953125 407.86328125 C-213.23534209 399.67315742 -218.61867614 391.16870382 -223.625 382.3125 C-224.0271875 381.60528809 -224.429375 380.89807617 -224.84375 380.16943359 C-237.8691741 357.03404164 -246.61801461 331.86287591 -251.9375 305.875 C-252.08485596 305.15610596 -252.23221191 304.43721191 -252.3840332 303.6965332 C-255.35789088 288.05024391 -255.99800362 272.57681954 -255.9375 256.6875 C-255.93534485 255.66959381 -255.9331897 254.65168762 -255.93096924 253.60293579 C-255.88129854 238.99386477 -255.63040191 224.66174147 -252.625 210.3125 C-252.42632324 209.33764648 -252.22764648 208.36279297 -252.02294922 207.35839844 C-241.90232806 158.9765226 -219.9858123 114.98821731 -185.625 79.3125 C-184.99287598 78.65314453 -184.36075195 77.99378906 -183.70947266 77.31445312 C-174.56502521 67.82619695 -165.26765991 59.0862956 -154.625 51.3125 C-153.47394983 50.45443848 -152.32290823 49.59636549 -151.171875 48.73828125 C-142.98224019 42.70072604 -134.47961724 37.31792698 -125.625 32.3125 C-124.91778809 31.9103125 -124.21057617 31.508125 -123.48193359 31.09375 C-100.34654164 18.0683259 -75.17537591 9.31948539 -49.1875 4 C-48.46860596 3.85264404 -47.74971191 3.70528809 -47.0090332 3.5534668 C-31.36274391 0.57960912 -15.88931954 -0.06050362 0 0 Z " fill="#D0D0D2" transform="translate(255.625,-0.3125)"/>
<path d="M0 0 C1.28271484 1.97436523 1.28271484 1.97436523 2.2109375 4.55859375 C2.56494629 5.49759521 2.91895508 6.43659668 3.28369141 7.40405273 C3.82388916 8.90560913 3.82388916 8.90560913 4.375 10.4375 C7.42067861 18.36729119 10.32147888 25.5483469 16 32 C16.52851563 32.62390625 17.05703125 33.2478125 17.6015625 33.890625 C24.30760018 41.20052389 32.78266945 45.78383638 41.9375 49.3125 C42.55681396 49.55492432 43.17612793 49.79734863 43.81420898 50.04711914 C66.32604806 58.23350532 95.19871115 56.3122321 116.91577148 46.55249023 C131.45279775 39.45524839 141.4285834 28.85617667 146.875 13.6875 C147.59373339 11.46166477 148.30311294 9.2327715 149 7 C149.59112742 5.37021144 150.19282542 3.74414971 150.8125 2.125 C151.204375 1.09375 151.59625 0.0625 152 -1 C157.27750861 -0.32756797 161.98981933 1.2525376 166.97265625 3.02734375 C168.27473526 3.48429878 168.27473526 3.48429878 169.6031189 3.95048523 C172.42452513 4.94164045 175.24351156 5.93949136 178.0625 6.9375 C180.98520456 7.96674953 183.90845177 8.99444703 186.83174133 10.02203369 C188.78220996 10.70777909 190.7324767 11.39409899 192.68254089 12.08099365 C198.40209193 14.09418036 204.12842905 16.08521976 209.8671875 18.04296875 C210.52716232 18.26844894 211.18713715 18.49392914 211.86711121 18.72624207 C214.84807241 19.74398809 217.83033443 20.75764871 220.81469727 21.76538086 C249.77299467 31.65222493 274.27484524 48.04997812 288.06640625 76.0859375 C297.57376177 96.41400593 297.57376177 96.41400593 295 107 C293.44869633 110.02753245 291.5730625 112.77783332 289.625 115.5625 C289.08625244 116.34898926 288.54750488 117.13547852 287.99243164 117.94580078 C279.84102916 129.72018135 270.93723326 140.6824929 261 151 C260.36787598 151.65935547 259.73575195 152.31871094 259.08447266 152.99804688 C249.94002521 162.48630305 240.64265991 171.2262044 230 179 C228.84894983 179.85806152 227.69790823 180.71613451 226.546875 181.57421875 C218.35724019 187.61177396 209.85461724 192.99457302 201 198 C199.93918213 198.60328125 199.93918213 198.60328125 198.85693359 199.21875 C175.72154164 212.2441741 150.55037591 220.99301461 124.5625 226.3125 C123.84360596 226.45985596 123.12471191 226.60721191 122.3840332 226.7590332 C107.70839502 229.54840125 93.18331162 230.34892619 78.27270508 230.31567383 C75.33311513 230.3125221 72.3945442 230.33604926 69.45507812 230.36132812 C56.08193808 230.40598737 43.18583289 229.20051542 30 227 C28.86296631 226.81187744 27.72593262 226.62375488 26.55444336 226.42993164 C-16.71302759 218.65794532 -57.76293216 198.67095309 -91 170 C-92.11761719 169.04867187 -92.11761719 169.04867187 -93.2578125 168.078125 C-106.75517053 156.27365595 -119.46476167 143.53050574 -130 129 C-130.44311523 128.39639648 -130.88623047 127.79279297 -131.34277344 127.17089844 C-146.62616135 106.3239646 -146.62616135 106.3239646 -145.50390625 98.57421875 C-142.99610983 88.22045344 -139.22627219 79.27053242 -134 70 C-133.443125 69.00097656 -132.88625 68.00195312 -132.3125 66.97265625 C-113.82775345 36.00181889 -81.82684955 25.52317096 -49.625 14.5 C-45.98645575 13.2508246 -42.34827995 12.00058601 -38.71038818 10.74951172 C-36.36687719 9.94445037 -34.02269009 9.14135419 -31.67779541 8.34033203 C-26.65360973 6.62087509 -21.64093144 4.88497195 -16.66308594 3.03515625 C-15.87719086 2.74572144 -15.09129578 2.45628662 -14.28158569 2.15808105 C-12.87600844 1.63677477 -11.47405309 1.105529 -10.07705688 0.56164551 C-6.38787506 -0.80242172 -3.70611095 -1.57237692 0 0 Z " fill="#5E86C3" transform="translate(181,282)"/>
<path d="M0 0 C0.680625 0.1227832 1.36125 0.24556641 2.0625 0.37207031 C21.89173274 4.0595762 40.54948455 10.7767971 56 24 C56.73605469 24.62390625 57.47210938 25.2478125 58.23046875 25.890625 C68.28824586 35.15078343 75.53964827 48.18693152 76.375 61.89453125 C76.86251598 75.8968602 74.13675914 87.23450344 69.3125 100.375 C67.36366695 105.74795092 65.8176299 110.25534193 66 116 C68.24958334 118.58333229 68.24958334 118.58333229 71 121 C75.77368032 129.26571106 75.03394448 140.55572739 73.30859375 149.640625 C70.86468229 158.43461601 66.85992611 165.96158583 59 171 C57.34190002 171.37362194 55.67524896 171.7128941 54 172 C53.76925781 172.98097656 53.53851563 173.96195313 53.30078125 174.97265625 C46.94060189 201.51704214 46.94060189 201.51704214 40 210 C39.08423411 212.74729768 38.88972669 214.25355846 38.93408203 217.0690918 C38.94384064 217.88391525 38.95359924 218.69873871 38.96365356 219.53825378 C38.98551224 220.85543144 38.98551224 220.85543144 39.0078125 222.19921875 C39.02533976 224.06705176 39.04224698 225.93489066 39.05859375 227.80273438 C39.08945809 230.74097099 39.12486399 233.67891068 39.17138672 236.61694336 C39.21399213 239.45690486 39.23724759 242.29652314 39.2578125 245.13671875 C39.28574387 246.43871468 39.28574387 246.43871468 39.3142395 247.76701355 C39.36571489 260.14429287 32.53661472 274.34723361 24.00390625 283.26171875 C6.51933612 298.42864605 -14.87876431 300.08245929 -37 299 C-41.11282848 298.62534963 -45.00022766 298.01429633 -49 297 C-50.25876953 296.70802734 -50.25876953 296.70802734 -51.54296875 296.41015625 C-64.10442354 293.11886034 -75.14148973 286.11150797 -82.22265625 275.14453125 C-90.55458497 260.40342658 -91.69953052 247.38067858 -91.18139648 230.7421875 C-91.16058014 230.02069519 -91.13976379 229.29920288 -91.11831665 228.55584717 C-91.05468921 226.57479984 -90.9700468 224.59445948 -90.8840332 222.61425781 C-91.05647087 217.24001114 -91.96771559 212.62229588 -95.75 208.6875 C-100.49483898 202.75935154 -102.20098004 195.25134199 -104.36572266 188.09375 C-104.90699556 186.30700773 -105.4725013 184.5276364 -106.04296875 182.75 C-107.27152365 178.87399581 -108 176.12366503 -108 172 C-109.11375 171.8453125 -109.11375 171.8453125 -110.25 171.6875 C-115.60710895 170.34822276 -119.41457925 166.22675929 -122.5546875 161.81640625 C-126.97670201 154.26758266 -128.39074546 146.76648089 -128.375 138.125 C-128.37556396 137.33851074 -128.37612793 136.55202148 -128.37670898 135.74169922 C-128.25762144 129.43331291 -126.81780628 124.63561256 -124 119 C-122.97143598 115.90131898 -123.02309946 113.99747964 -123.92578125 110.875 C-124.14468018 110.0919751 -124.3635791 109.3089502 -124.58911133 108.50219727 C-124.82782959 107.67647217 -125.06654785 106.85074707 -125.3125 106 C-129.86314825 89.44265341 -133.41059224 72.10278673 -125.48828125 55.91015625 C-122.91842648 51.60781512 -120.73842986 48.39167513 -116.5078125 45.66796875 C-112.44908117 42.90505849 -110.99811625 39.74295916 -109.125 35.3125 C-100.87125291 17.50231575 -86.00604499 8.87385809 -68.35546875 1.96484375 C-46.46086422 -5.66567517 -22.44434672 -4.06614221 0 0 Z " fill="#F7CEA2" transform="translate(283,26)"/>
<path d="M0 0 C0.680625 0.1227832 1.36125 0.24556641 2.0625 0.37207031 C21.89173274 4.0595762 40.54948455 10.7767971 56 24 C56.73605469 24.62390625 57.47210938 25.2478125 58.23046875 25.890625 C68.28824586 35.15078343 75.53964827 48.18693152 76.375 61.89453125 C76.85047494 75.5510201 74.37913003 86.71154241 69.5625 99.5 C64.34805422 113.66269223 61.73668149 129.04380267 60 144 C59.01 144 58.02 144 57 144 C51.5291992 128.17114969 51.73495342 112.54298446 52 96 C51.40574219 96.13277344 50.81148437 96.26554687 50.19921875 96.40234375 C4.28157313 106.18573014 -51.91577552 99.58283035 -91.69824219 73.90380859 C-93.13843191 72.94522708 -94.57005845 71.97380292 -96 71 C-110.28454802 90.99836723 -110.78660627 120.27495948 -112 144 C-112.66 144 -113.32 144 -114 144 C-114.29390625 142.7934375 -114.29390625 142.7934375 -114.59375 141.5625 C-116.41725501 134.39423892 -118.50899635 127.41224635 -120.94140625 120.42480469 C-127.78208508 100.71683423 -134.12600448 79.52188569 -127 59 C-124.32461395 53.53170447 -121.67487226 48.99456448 -116.5078125 45.66796875 C-112.44908117 42.90505849 -110.99811625 39.74295916 -109.125 35.3125 C-100.87125291 17.50231575 -86.00604499 8.87385809 -68.35546875 1.96484375 C-46.46086422 -5.66567517 -22.44434672 -4.06614221 0 0 Z " fill="#4E545F" transform="translate(283,26)"/>
<path d="M0 0 C0.33 0 0.66 0 1 0 C1.21814182 5.8344342 1.41477584 11.66906336 1.59204102 17.50488281 C1.65523003 19.48749878 1.72415754 21.4699409 1.79907227 23.45214844 C1.90612125 26.31157765 1.99209677 29.17100917 2.07421875 32.03125 C2.1302552 33.34736267 2.1302552 33.34736267 2.18742371 34.69006348 C2.47317411 46.54874094 -3.84328468 59.30373808 -11.25 68.4375 C-22.66875754 80.36716392 -39.6791225 85.73674418 -55.8125 86.25390625 C-65.95798332 86.41782407 -76.10660426 86.50885155 -86 84 C-86.83917969 83.80535156 -87.67835938 83.61070312 -88.54296875 83.41015625 C-101.09046251 80.12251835 -112.17363126 73.11679308 -119.21875 62.1328125 C-119.8065625 61.09898437 -120.394375 60.06515625 -121 59 C-121.33128906 58.4337793 -121.66257813 57.86755859 -122.00390625 57.28417969 C-131.18018591 40.71977372 -128.19188359 21.18232038 -127 3 C-125.89389054 3.93129113 -124.79019987 4.86545547 -123.6875 5.80078125 C-122.76517578 6.58062378 -122.76517578 6.58062378 -121.82421875 7.3762207 C-120.1080293 8.90384062 -118.55134394 10.49487492 -117 12.1875 C-103.18133795 26.16177761 -87.24175526 34.18380823 -67.53515625 34.37109375 C-65.66150391 34.37302734 -65.66150391 34.37302734 -63.75 34.375 C-62.51636719 34.39949219 -61.28273438 34.42398438 -60.01171875 34.44921875 C-41.3346781 34.50813686 -28.76207573 26.83055633 -15 15 C-14.18015625 14.30390625 -13.3603125 13.6078125 -12.515625 12.890625 C-7.8894392 8.88540374 -3.91441227 4.69729472 0 0 Z " fill="#F0B97C" transform="translate(320,239)"/>
<path d="M0 0 C0.20044922 0.57854736 0.40089844 1.15709473 0.60742188 1.75317383 C6.62041691 18.88373311 12.00076283 31.67822324 28.80078125 40.46484375 C47.67888452 49.4730673 73.2733605 50.21003567 93.0859375 43.69775391 C106.44636535 38.82733263 115.26455969 32.58722227 122 20 C122.36996094 19.32839844 122.73992187 18.65679687 123.12109375 17.96484375 C125.62330536 13.22329878 127.33764595 8.32416907 128.97265625 3.22265625 C129.31167969 2.48917969 129.65070313 1.75570313 130 1 C133.40931897 -0.13643966 134.00335456 0.13252236 137.1875 1.4375 C137.90292969 1.72496094 138.61835938 2.01242187 139.35546875 2.30859375 C139.89816406 2.53675781 140.44085938 2.76492188 141 3 C137.48068651 21.55638022 130.16266975 36.92229672 114.39453125 47.796875 C106.41793273 52.83472669 98.10880979 55.72199506 89 58 C88.26193115 58.18763916 87.5238623 58.37527832 86.76342773 58.56860352 C79.61877734 60.20160417 72.61992098 60.34656608 65.3125 60.3125 C64.07169678 60.30758545 62.83089355 60.3026709 61.55249023 60.29760742 C40.99795991 60.03486515 22.01149284 54.67625796 6.75 40.3125 C-1.90919089 31.20116781 -11 16.02945889 -11 3 C-9.54293274 2.49632243 -8.08429904 1.99717444 -6.625 1.5 C-5.81289062 1.2215625 -5.00078125 0.943125 -4.1640625 0.65625 C-2 0 -2 0 0 0 Z " fill="#E5E5E6" transform="translate(192,277)"/>
<path d="M0 0 C0.33 0 0.66 0 1 0 C1.22861002 6.58297793 1.38596653 13.16493024 1.49438477 19.75097656 C1.53958591 21.98997238 1.6009619 24.22870338 1.67895508 26.46679688 C1.78842851 29.68946585 1.83922558 32.9086207 1.87890625 36.1328125 C1.92535782 37.12991241 1.97180939 38.12701233 2.01966858 39.15432739 C2.02458422 45.95546064 2.02458422 45.95546064 -0.93826294 48.97601318 C-5.11085186 51.84922578 -8.84182618 53.73547827 -14 54 C-13.35716348 46.42776394 -11.31451576 39.35753047 -9.25 32.0625 C-8.88764795 30.76743826 -8.52567085 29.47227155 -8.1640625 28.17700195 C-5.52776291 18.75977588 -2.81875655 9.36423449 0 0 Z " fill="#4E5EA7" transform="translate(387,429)"/>
<path d="M0 0 C1.90274669 2.85412003 2.55534456 4.60706428 3.3671875 7.8671875 C3.61106201 8.82890869 3.85493652 9.79062988 4.10620117 10.78149414 C4.35990479 11.80235107 4.6136084 12.82320801 4.875 13.875 C6.51001122 20.32097575 8.15043514 26.73108218 10.1875 33.0625 C12.27949392 39.60982825 13.66714891 46.26506305 15 53 C9.19432416 52.06386383 4.35013714 50.02379847 0 46 C-1.34917697 42.42300928 -1.17670446 39.13324978 -0.9765625 35.3515625 C-0.96241302 34.33903412 -0.94826355 33.32650574 -0.9336853 32.28329468 C-0.8778619 29.06080694 -0.752468 25.84537081 -0.625 22.625 C-0.5748227 20.43629863 -0.52919822 18.24748782 -0.48828125 16.05859375 C-0.37824636 10.70333824 -0.21111502 5.35217262 0 0 Z " fill="#4F5DA6" transform="translate(125,431)"/>
<path d="M0 0 C7.04721321 9.28075619 6.43977807 18.86940798 5 30 C4.04614914 33.29305653 2.76687823 36.07185199 1 39 C0.01 40.7015625 0.01 40.7015625 -1 42.4375 C-2.99013518 44.9873607 -4.14108127 45.71944265 -7 47 C-6.46373646 40.24307942 -5.45025144 33.64482282 -4.23388672 26.98291016 C-2.61251095 18.02101663 -1.31393577 9.01117649 0 0 Z " fill="#ECB77D" transform="translate(346,145)"/>
<path d="M0 0 C3.5104601 3.5104601 4.26035297 7.70346827 5 12.4921875 C5.165 13.52730469 5.33 14.56242188 5.5 15.62890625 C5.665 16.70011719 5.83 17.77132812 6 18.875 C7.18578922 27.02172478 7.18578922 27.02172478 9.125 35.0078125 C10 38 10 38 10 42 C5.30923175 40.15719819 2.94938867 37.10006115 0.89453125 32.5546875 C-3.23496257 22.32785443 -5.20272234 11.63041533 -1 1 C-0.67 0.67 -0.34 0.34 0 0 Z " fill="#EEB87C" transform="translate(163,150)"/>
</svg>
