<?xml version="1.0" encoding="UTF-8"?>
<svg version="1.1" xmlns="http://www.w3.org/2000/svg" width="512" height="512">
<path d="M0 0 C2.31152385 -0.00135134 4.62304742 -0.00329575 6.93457031 -0.00579834 C11.75198097 -0.00872754 16.56931687 -0.00452351 21.38671875 0.00488281 C27.51538038 0.01627589 33.64386674 0.00970452 39.77252197 -0.00226212 C44.53761073 -0.00954061 49.30265895 -0.00716549 54.06774902 -0.00200653 C56.32564312 -0.00068654 58.58354108 -0.00225878 60.84143066 -0.00696564 C77.15371409 -0.03352055 93.13128653 0.4944668 109.0625 4.390625 C109.93221436 4.60235352 110.80192871 4.81408203 111.69799805 5.03222656 C150.48295211 14.97583148 184.60634825 40.85948002 205.10546875 75.16015625 C211.76904804 86.57273239 216.97387491 98.28681436 220.9375 110.890625 C221.17557373 111.62249023 221.41364746 112.35435547 221.65893555 113.10839844 C234.68422926 156.51691322 226.75 224.22516593 226.75 257.265625 C96.07 257.265625 -34.61 257.265625 -169.25 257.265625 C-169.25 128.82033088 -169.25 128.82033088 -163.125 109.703125 C-162.82787109 108.75405273 -162.53074219 107.80498047 -162.22460938 106.82714844 C-157.77591701 93.14764779 -151.58598344 80.01591103 -143.25 68.265625 C-142.25419922 66.84443359 -142.25419922 66.84443359 -141.23828125 65.39453125 C-119.02493659 34.7265563 -87.19588881 12.42635446 -50.125 3.953125 C-49.48248291 3.80576904 -48.83996582 3.65841309 -48.17797852 3.5065918 C-32.19973436 0.17429335 -16.2449796 -0.03386473 0 0 Z " fill="#000000" transform="translate(227.25,254.734375)"/>
<path d="M0 0 C0.99220551 0.00273422 0.99220551 0.00273422 2.00445557 0.00552368 C11.80275949 0.0509808 20.74944328 0.54190101 30.1875 3.3125 C31.43273437 3.62960938 32.67796875 3.94671875 33.9609375 4.2734375 C49.87669591 8.5427029 64.60687578 16.74039344 77.1875 27.3125 C78.10660156 28.06917969 79.02570313 28.82585938 79.97265625 29.60546875 C103.08975356 49.53624322 117.49754856 79.00233035 120.04248047 109.30224609 C122.53301525 143.82592184 111.21252723 175.59253541 88.75 201.625 C83.99138931 206.73547979 78.73495682 211.08661991 73.1875 215.3125 C72.00220703 216.22128906 72.00220703 216.22128906 70.79296875 217.1484375 C44.65612476 236.30678749 12.5334007 242.97527245 -19.4296875 238.65625 C-50.34873855 233.51832236 -78.27031768 215.99039608 -96.875 190.9375 C-98.19855945 189.07029041 -99.51167776 187.19562048 -100.8125 185.3125 C-101.32683594 184.57902344 -101.84117187 183.84554687 -102.37109375 183.08984375 C-119.38978933 156.93916518 -123.19556808 123.91990378 -117.35595703 93.79980469 C-110.56796139 62.73237452 -91.53094864 36.07515535 -65.0625 18.6875 C-45.11831156 6.00568673 -23.63950329 -0.10337975 0 0 Z " fill="#000000" transform="translate(255.8125,-0.3125)"/>
</svg>
