<svg width="22" height="25" viewBox="0 0 22 25" fill="none" xmlns="http://www.w3.org/2000/svg">
<g filter="url(#filter0_d_727_3850)">
<path d="M16.25 0H5.75C4.7875 0 4 0.765 4 1.7V15.3C4 16.235 4.7875 17 5.75 17H16.25C17.2125 17 18 16.235 18 15.3V1.7C18 0.765 17.2125 0 16.25 0ZM6 2H10.125V8.5L7.9375 7.225L6 8.5V2Z" fill="white"/>
<path d="M11.125 2V1H16.25C16.6877 1 17 1.34441 17 1.7V15.3C17 15.6556 16.6877 16 16.25 16H5.75C5.31226 16 5 15.6556 5 15.3V10.3552L6.54972 9.33535L7.96944 8.40108L9.62144 9.36396L11.125 10.2403V8.5V2Z" stroke="#494949" stroke-width="2"/>
</g>
<defs>
<filter id="filter0_d_727_3850" x="0" y="0" width="22" height="25" filterUnits="userSpaceOnUse" color-interpolation-filters="sRGB">
<feFlood flood-opacity="0" result="BackgroundImageFix"/>
<feColorMatrix in="SourceAlpha" type="matrix" values="0 0 0 0 0 0 0 0 0 0 0 0 0 0 0 0 0 0 127 0" result="hardAlpha"/>
<feOffset dy="4"/>
<feGaussianBlur stdDeviation="2"/>
<feComposite in2="hardAlpha" operator="out"/>
<feColorMatrix type="matrix" values="0 0 0 0 0 0 0 0 0 0 0 0 0 0 0 0 0 0 0.25 0"/>
<feBlend mode="normal" in2="BackgroundImageFix" result="effect1_dropShadow_727_3850"/>
<feBlend mode="normal" in="SourceGraphic" in2="effect1_dropShadow_727_3850" result="shape"/>
</filter>
</defs>
</svg>
