<?xml version="1.0" encoding="UTF-8"?>
<svg version="1.1" xmlns="http://www.w3.org/2000/svg" width="512" height="512">
<path d="M0 0 C1.60590479 2.34638841 3.02838663 4.66387925 4.4375 7.125 C18.45634665 30.43344382 37.62692867 41.88196334 61.24072266 54.09002686 C64.98439424 56.02641319 68.72179487 57.97488834 72.45996094 59.921875 C74.37794594 60.91909869 76.29782345 61.9126923 78.21972656 62.90234375 C82.33395688 65.03074871 86.39509595 67.19191589 90.359375 69.58984375 C91.00600098 69.97922119 91.65262695 70.36859863 92.31884766 70.76977539 C93.97642208 71.78408188 95.61799806 72.82441273 97.2578125 73.8671875 C99.91515899 75.31322872 99.91515899 75.31322872 102.37475586 74.22070312 C104.86316616 73.06362589 107.31293808 71.87062884 109.74609375 70.6015625 C110.65456055 70.12831543 111.56302734 69.65506836 112.49902344 69.16748047 C113.95356934 68.40395264 113.95356934 68.40395264 115.4375 67.625 C116.45231445 67.09406738 117.46712891 66.56313477 118.51269531 66.01611328 C126.38504895 61.88257941 134.20652728 57.66030196 141.98999023 53.36181641 C146.32591883 50.97321253 150.67175931 48.64013324 155.109375 46.4453125 C176.63159125 35.75217821 190.05967248 20.59620965 202 0 C207.71577016 0.52211362 212.02857761 2.76980995 217 5.4375 C217.83724609 5.88416016 218.67449219 6.33082031 219.53710938 6.79101562 C232.76395205 13.99555255 243.95047634 22.93831694 254.5859375 33.58984375 C255.96758809 34.96925866 257.36754822 36.33197904 258.81640625 37.640625 C277.71748964 55.06175779 287.50467929 79.2757361 292 104 C292 135.68 292 167.36 292 200 C165.94 200 39.88 200 -90 200 C-90 92.89645777 -90 92.89645777 -82 75 C-81.49597656 73.86949219 -80.99195312 72.73898437 -80.47265625 71.57421875 C-74.7181585 59.4017635 -67.12699009 48.92223723 -57.94140625 39.09765625 C-55.85319134 36.90238584 -55.85319134 36.90238584 -53.625 33.9375 C-49.5538175 29.38165292 -44.80064671 25.75946749 -40 22 C-39.06929687 21.25363281 -38.13859375 20.50726563 -37.1796875 19.73828125 C-11.89539703 0 -11.89539703 0 0 0 Z " fill="#000000" transform="translate(155,312)"/>
<path d="M0 0 C0.66831848 0.00176239 1.33663696 0.00352478 2.02520752 0.00534058 C35.56013003 0.2010232 65.6406701 15.11350232 89.1875 38.5 C94.48407007 43.8693925 99.4004881 49.41873156 103.875 55.5 C104.4421875 56.25023437 105.009375 57.00046875 105.59375 57.7734375 C141.19158952 106.4777543 147.58550947 170.4266042 139.02734375 228.65625 C135.3511719 251.22561289 128.87772807 275.37263705 109.97265625 289.96875 C96.84889339 298.77160116 81.83958693 299.82820697 66.54321289 299.70581055 C64.20903387 299.68766738 61.87525765 299.68530098 59.54101562 299.68554688 C50.78599263 299.66451878 42.10288163 299.32680866 33.36938477 298.72485352 C29.13574707 298.45243122 24.92853925 298.34709843 20.6875 298.375 C19.94048828 298.3762085 19.19347656 298.37741699 18.42382812 298.37866211 C13.88117403 298.41028941 9.40205559 298.65288392 4.875 299.0625 C0.30984531 299.47285098 -3.82233015 299.34627391 -8.35791016 298.77172852 C-19.19478889 297.70754588 -30.05522093 298.79533386 -40.85272217 299.78338623 C-92.89453582 304.48579213 -92.89453582 304.48579213 -112.125 290.5 C-112.95 289.9225 -113.775 289.345 -114.625 288.75 C-131.48675046 273.57442459 -136.39543766 247.98234668 -139.125 226.5 C-139.28162109 225.28618652 -139.28162109 225.28618652 -139.44140625 224.04785156 C-142.89087459 195.65523395 -143.43750358 164.6580032 -138.125 136.5 C-137.99109863 135.76281738 -137.85719727 135.02563477 -137.71923828 134.26611328 C-129.72148786 91.83441196 -106.69540041 47.80084161 -70.40380859 22.88061523 C-68.65895382 21.7284221 -66.89807243 20.60823071 -65.125 19.5 C-64.51221191 19.11263672 -63.89942383 18.72527344 -63.26806641 18.32617188 C-55.68926661 13.60909269 -47.91651671 9.77545905 -39.5625 6.625 C-38.48512573 6.21374878 -38.48512573 6.21374878 -37.38598633 5.79418945 C-25.22735551 1.4528803 -12.8541765 -0.06439315 0 0 Z M12.875 63.5 C11.56869224 66.18945716 10.86243115 68.08271415 10.953125 71.09375 C12.18149667 74.30000826 13.73919911 75.18997104 16.625 77 C19.64733059 78.97315011 22.39830882 80.80415065 24.875 83.4375 C25.865 84.4584375 25.865 84.4584375 26.875 85.5 C27.535 85.5 28.195 85.5 28.875 85.5 C29.15085937 86.09296875 29.42671875 86.6859375 29.7109375 87.296875 C30.81428826 89.3850959 31.99090192 90.94582688 33.5 92.75 C41.40444873 103.21177038 48.875 118.08866659 48.875 131.5 C48.43671875 130.64019531 47.9984375 129.78039062 47.546875 128.89453125 C38.41610934 111.62509983 25.54001032 99.21638512 6.875 92.5 C3.88923515 91.76010378 0.88962088 91.11078121 -2.125 90.5 C-3.18074219 91.82451172 -3.18074219 91.82451172 -4.2578125 93.17578125 C-21.52409091 114.34883304 -46.27800371 130.59256995 -73.76171875 134.24609375 C-86.22052075 135.18665372 -97.09414606 133.0843042 -107.125 125.5 C-109 123.75 -109 123.75 -110.125 122.5 C-115.75461514 127.06455282 -117.53117707 132.48961899 -118.375 139.609375 C-118.70765077 150.00471144 -114.87466819 157.87549771 -109.25 166.3125 C-105.28417658 170.39496529 -101.76701055 172.3574981 -96.1640625 172.84375 C-94.046875 173.3581543 -94.046875 173.3581543 -92.125 174.5 C-89.93778955 178.3714429 -88.91315239 182.54027426 -87.75 186.8125 C-86.99988629 189.28830126 -86.23932018 191.76095786 -85.46875 194.23046875 C-85.08460938 195.46200684 -84.70046875 196.69354492 -84.3046875 197.96240234 C-78.03477118 216.76436581 -67.09580555 234.57869738 -54.125 249.5 C-53.29484375 250.47453125 -52.4646875 251.4490625 -51.609375 252.453125 C-38.95693376 267.00217107 -22.74149289 278.42475855 -3.125 280.5 C17.56433096 281.02062868 33.07742423 270.97287292 47.98828125 257.60546875 C65.6905055 240.75465408 80.28759327 215.91790239 86.9609375 192.57421875 C87.28755371 191.43525146 87.61416992 190.29628418 87.95068359 189.12280273 C88.55380207 186.92204158 89.11366991 184.70883562 89.62353516 182.48461914 C90.43432273 179.46495827 91.14538505 177.10883107 92.875 174.5 C95.68597809 173.11057675 98.13846342 172.50273399 101.23095703 172.02319336 C106.94245098 170.89302424 110.43874745 166.41276995 113.625 161.8125 C118.45284738 153.4474179 120.42206494 143.52905591 118.3359375 134.05078125 C116.97974778 129.54256817 115.41444835 125.73606706 111.875 122.5 C109.88650165 122.10378613 107.88541869 121.76330177 105.875 121.5 C105.14796875 122.44359375 105.14796875 122.44359375 104.40625 123.40625 C91.54166667 139.83333333 91.54166667 139.83333333 83.875 142.5 C80.5 142.6875 80.5 142.6875 77.875 142.5 C76.41401311 138.86213431 74.98151119 135.21387937 73.5546875 131.5625 C60.81435272 99.30223399 44.39655069 78.6395477 12.875 63.5 Z " fill="#000000" transform="translate(252.125,-0.5)"/>
</svg>
